<?xml version="1.0" encoding="utf-8"?>
<?xml-stylesheet type="text/xsl" href="rss1.xsl"?>
<rss version="2.0" xmlns:atom="http://www.w3.org/2005/Atom" xmlns:content="http://purl.org/rss/1.0/modules/content/" xmlns:dc="http://purl.org/dc/elements/1.1/" xmlns:media="http://search.yahoo.com/mrss/">
<channel>
 <title>Getty</title>
 <link>http://www.gettyimg.com/</link>
 <atom:link href="http://www.gettyimg.com/" rel="self" type="application/rss+xml" />

 
                <item>
                <title><![CDATA[【Cinema Center】SERIES - Chip 'n' Dale: Park Life - Season 2 - 1080p Disney+ WEB-DL DDP5.1 H.264-LAZY]]></title>
                <link><![CDATA[https://sharemania.us/threads/chip-n-dale-park-life-season-2-1080p-disney-web-dl-ddp5-1-h-264-lazy.246639/]]></link>
                <description><![CDATA[<article>
<blockquote class="messageText SelectQuoteContainer ugc baseHtml">
Chip 'n' Dale: Park Life:<img src="http:////cdn2.broadcasthe.net/tvdb/banners/v4/series/387210/banners/62dfaeb9e47b2.jpg" class="bbCodeImage LbImage" alt="[​IMG]" data-url="http:////cdn2.broadcasthe.net/tvdb/banners/v4/series/387210/banners/62dfaeb9e47b2.jpg" style=""> <br>
<br>
<div class="bbCodeBlock bbCodeQuote">
<aside>
<blockquote class="quoteContainer"><div class="quote"><i><b>Synopsis:</b></i><br>
The lovable chipmunk troublemakers in a non-verbal, classic style comedy, following the ups and downs of two little creatures living life in the big city.</div><div class="quoteExpand">Click to expand...</div></blockquote>
</aside>
</div>
<div class="ToggleTriggerAnchor bbCodeSpoilerContainer">
<button type="button" class="button bbCodeSpoilerButton ToggleTrigger Tooltip JsOnly" data-target="> .SpoilerTarget"><span>Spoiler: <span class="SpoilerTitle">MediaInfo</span></span></button>
<div class="SpoilerTarget bbCodeSpoilerText">General<br>
Unique ID : 278814131842031354401354067040988386523 (0xD1C1A606EEDC1D365D5EEE4468AD54DB)<br>
Complete name : Chip.n.Dale.Park.Life.S02E01E02E03.The.Martian.Chipmunks.-.Two.and.a.Half.Chipmunks.-.Koi.Ride.1080p.DSNP.WEB-DL.DDP5.1.H.264-LAZY.mkv<br>
Format : Matroska<br>
Format version : Version 4<br>
File size : 1 009 MiB<br>
Duration : 22 min 28 s<br>
Overall bit rate mode : Variable<br>
Overall bit rate : 6 275 kb/s<br>
Frame rate : 24.000 FPS<br>
Encoded date : 2024-05-23 17:05:06 UTC<br>
Writing application : mkvmerge v84.0 ('Sleeper') 64-bit<br>
Writing library : libebml v1.4.5 + libmatroska v1.7.1<br>
<br>
Video<br>
ID : 1<br>
Format : AVC<br>
Format/Info : Advanced Video Codec<br>
Format profile : High@L4<br>
Format settings : CABAC / 4 Ref Frames<br>
Format settings, CABAC : Yes<br>
Format settings, Reference frames : 4 frames<br>
Codec ID : V_MPEG4/ISO/AVC<br>
Duration : 22 min 28 s<br>
Bit rate mode : Variable<br>
Bit rate : 6 018 kb/s<br>
Maximum bit rate : 12.7 Mb/s<br>
Width : 1 920 pixels<br>
Height : 1 080 pixels<br>
Display aspect ratio : 16:9<br>
Frame rate mode : Constant<br>
Frame rate : 24.000 FPS<br>
Color space : YUV<br>
Chroma subsampling : 4:2:0<br>
Bit depth : 8 bits<br>
Scan type : Progressive<br>
Bits/(Pixel*Frame) : 0.121<br>
Time code of first frame : 00:00:00;00<br>
Stream size : 967 MiB (96%)<br>
Default : Yes<br>
Forced : No<br>
Color range : Limited<br>
Color primaries : BT.709<br>
Transfer characteristics : BT.709<br>
Matrix coefficients : BT.709<br>
<br>
Audio<br>
ID : 2<br>
Format : E-AC-3<br>
Format/Info : Enhanced AC-3<br>
Commercial name : Dolby Digital Plus<br>
Codec ID : A_EAC3<br>
Duration : 22 min 28 s<br>
Bit rate mode : Constant<br>
Bit rate : 256 kb/s<br>
Channel(s) : 6 channels<br>
Channel layout : L R C LFE Ls Rs<br>
Sampling rate : 48.0 kHz<br>
Frame rate : 31.250 FPS (1536 SPF)<br>
Compression mode : Lossy<br>
Stream size : 41.2 MiB (4%)<br>
Language : English<br>
Service kind : Complete Main<br>
Default : Yes<br>
Forced : No<br>
<br>
Text<br>
ID : 3<br>
Format : UTF-8<br>
Codec ID : S_TEXT/UTF8<br>
Codec ID/Info : UTF-8 Plain Text<br>
Duration : 22 min 1 s<br>
Bit rate : 27 b/s<br>
Frame rate : 0.249 FPS<br>
Count of elements : 329<br>
Stream size : 4.43 KiB (0%)<br>
Title : SDH<br>
Language : English<br>
Default : No<br>
Forced : No<br>
<br>
Menu<br>
00:00:04.000 : en:Intro<br>
00:00:35.958 : en:intro_end / en:Scene 1<br>
00:07:45.917 : en:Scene 2<br>
00:14:56.917 : en:Scene 3<br>
00:22:06.917 : en:Credits</div>
</div><br>
Screenshots:<br>
<img src="https://ptpimg.me/88qe4x.jpg" class="bbCodeImage LbImage" alt="[​IMG]" data-url="https://ptpimg.me/88qe4x.jpg" style=""> <br>
<div class="bbCodeBlock bbCodeVfcHH HiddenContent">
<div class="attribution type">Hidden Content:</div>
<blockquote>You must either reply or click 'Like' to see the hidden information contained here.</blockquote>
</div>
<div class="messageTextEndMarker">&nbsp;</div>
</blockquote>
</article>]]></description>
                <author><![CDATA[LazyRips]]></author>
                </item>

                
                <item>
                <title><![CDATA[【Albums (lossless)】FLAC - DRAGONFORCE - 2008 - Ultra Beatdown [Vinyl Rip] [24bit-192kHz]]]></title>
                <link><![CDATA[https://sharemania.us/threads/dragonforce-2008-ultra-beatdown-vinyl-rip-24bit-192khz.246637/]]></link>
                <description><![CDATA[<article>
<blockquote class="messageText SelectQuoteContainer ugc baseHtml">
<div style="text-align: center"><img src="https://static.qobuz.com/images/covers/bc/j6/chmlgxuj2j6bc_600.jpg" class="bbCodeImage LbImage" alt="[​IMG]" data-url="https://static.qobuz.com/images/covers/bc/j6/chmlgxuj2j6bc_600.jpg" style=""> <br>
<br>
<b>Band</b>: Dragonforce<br>
<b>Album</b>: Ultra Beatdown [Vinyl Rip]<br>
<b>Date</b>: 20 August 2008<br>
<b>Genre</b>: Power Metal<br>
<b>Quality</b>: 24bit-192kHz<br>
<b>Country</b>: England<br>
<b>Size</b>: 2,4GB<br>
<br>
<b>Tracklist</b>:<br>
<br>
1-Heroes Of Our Time 07:15<br>
2-The Fire Still Burns 07:52<br>
3-Reasons To Live 06:25<br>
4-Heartbreak Armageddon 07:42<br>
5-The Last Journey Home 08:15<br>
6-A Flame for Freedom 05:20<br>
7-Inside the Winter Storm 08:11<br>
8-The Warrior Inside 07:14<br>
<br>
<b><span style="font-size: 22px"><span style="color: #b30000">Send.cm</span></span></b>:<br>
<br>
<div class="bbCodeBlock bbCodeVfcHH HiddenContent">
<div class="attribution type">Hidden Content:</div>
<blockquote>You must either reply or click 'Like' to see the hidden information contained here.</blockquote>
</div></div>
<div class="messageTextEndMarker">&nbsp;</div>
</blockquote>
</article>]]></description>
                <author><![CDATA[XRB80]]></author>
                </item>

                
                <item>
                <title><![CDATA[【Albums (lossless)】FLAC - Taylor Swift - The Tortured Poets Department (The Black Dog Edition) (2024) [CD]]]></title>
                <link><![CDATA[https://sharemania.us/threads/taylor-swift-the-tortured-poets-department-the-black-dog-edition-2024-cd.246636/]]></link>
                <description><![CDATA[<article>
<blockquote class="messageText SelectQuoteContainer ugc baseHtml">
<img src="https://i123.fastpic.org/big/2024/0610/3f/eb6fa0a797aa16c3b6928d6e0b10b83f.jpg" class="bbCodeImage LbImage" alt="[​IMG]" data-url="https://i123.fastpic.org/big/2024/0610/3f/eb6fa0a797aa16c3b6928d6e0b10b83f.jpg" style=""> <br>
<br>
<br>
Container: FLAC<br>
Quality: 16 bits Lossless<br>
Album Artist/Name: Taylor Swift - The Tortured Poets Department [The Black Dog Edition]<br>
Genre: Pop<br>
Release Date: 2024<br>
BitRate: 766 Kbps - 981 Kbps<br>
Total Size: 427.29 MB<br>
<br>
<br>
Tracklist:<br>
-----------------<br>
44 Khz 16 bits | 01. Taylor Swift - Fortnight (feat Post Malone) (03:48) [876 Kbps]<br>
44 Khz 16 bits | 02. Taylor Swift - The Tortured Poets Department (04:53) [932 Kbps]<br>
44 Khz 16 bits | 03. Taylor Swift - My Boy Only Breaks His Favorite Toys (03:23) [981 Kbps]<br>
44 Khz 16 bits | 04. Taylor Swift - Down Bad (04:21) [816 Kbps]<br>
44 Khz 16 bits | 05. Taylor Swift - So Long, London (04:22) [789 Kbps]<br>
44 Khz 16 bits | 06. Taylor Swift - But Daddy I Love Him (05:40) [926 Kbps]<br>
44 Khz 16 bits | 07. Taylor Swift - Fresh Out The Slammer (03:30) [839 Kbps]<br>
44 Khz 16 bits | 08. Taylor Swift - Florida!!! (feat Florence + The Machine) (03:35) [924 Kbps]<br>
44 Khz 16 bits | 09. Taylor Swift - Guilty As Sin? (04:14) [916 Kbps]<br>
44 Khz 16 bits | 10. Taylor Swift - Who's Afraid Of Little Old Me? (05:34) [824 Kbps]<br>
44 Khz 16 bits | 11. Taylor Swift - I Can Fix Him (No Really I Can) (02:36) [826 Kbps]<br>
44 Khz 16 bits | 12. Taylor Swift - Loml (04:37) [766 Kbps]<br>
44 Khz 16 bits | 13. Taylor Swift - I Can Do It With A Broken Heart (03:38) [938 Kbps]<br>
44 Khz 16 bits | 14. Taylor Swift - The Smallest Man Who Ever Lived (04:05) [822 Kbps]<br>
44 Khz 16 bits | 15. Taylor Swift - The Alchemy (03:16) [916 Kbps]<br>
44 Khz 16 bits | 16. Taylor Swift - Clara Bow (03:36) [784 Kbps]<br>
44 Khz 16 bits | 17. Taylor Swift - The Black Dog (Bonus Track) (03:58) [789 Kbps]<br>
--------------------------<br>
Total time [01:09:06]<br>
<br>
<div class="bbCodeBlock bbCodeVfcHH HiddenContent">
<div class="attribution type">Hidden Content:</div>
<blockquote>You must either reply or click 'Like' to see the hidden information contained here.</blockquote>
</div>
<div class="messageTextEndMarker">&nbsp;</div>
</blockquote>
</article>]]></description>
                <author><![CDATA[aburneraccount28072023]]></author>
                </item>

                
                <item>
                <title><![CDATA[【Cinema Center】SERIES - Barbie: A Touch of Magic - Season 2 - 1080p Netflix WEB-DL DDP5.1 x264-LAZY]]></title>
                <link><![CDATA[https://sharemania.us/threads/barbie-a-touch-of-magic-season-2-1080p-netflix-web-dl-ddp5-1-x264-lazy.246638/]]></link>
                <description><![CDATA[<article>
<blockquote class="messageText SelectQuoteContainer ugc baseHtml">
Barbie: A Touch of Magic:<img src="https://i.imgur.com/hkkWZ2z.jpg" class="bbCodeImage LbImage" alt="[​IMG]" data-url="https://i.imgur.com/hkkWZ2z.jpg" style=""><br>
<br>
<div class="bbCodeBlock bbCodeQuote">
<aside>
<blockquote class="quoteContainer"><div class="quote"><i><b>Synopsis:</b></i><br>
Barbie "Malibu" Roberts and Barbie "Brooklyn" Roberts discover a mysterious baby Pegasus on the beach in Malibu and work to find out where the magical horse came from. While they try to find out how to get little Peggy home, Malibu and Brooklyn, with the help of Malibu's sisters and best friend Ken, have to protect their four-legged friend from a Glyph, the fantastical creature that followed Peggy in hopes of stealing the little horse's wings.</div><div class="quoteExpand">Click to expand...</div></blockquote>
</aside>
</div>
<div class="ToggleTriggerAnchor bbCodeSpoilerContainer">
<button type="button" class="button bbCodeSpoilerButton ToggleTrigger Tooltip JsOnly" data-target="> .SpoilerTarget"><span>Spoiler: <span class="SpoilerTitle">MediaInfo</span></span></button>
<div class="SpoilerTarget bbCodeSpoilerText">General<br>
Unique ID : 85396920911312922602940959804080136816 (0x403ED94554BA481A8A46330813862270)<br>
Complete name : Barbie.A.Touch.of.Magic.S02E01.The.Plays.the.Thing.1080p.NF.WEB-DL.DDP5.1.x264-LAZY.mkv<br>
Format : Matroska<br>
Format version : Version 4<br>
File size : 913 MiB<br>
Duration : 23 min 35 s<br>
Overall bit rate mode : Variable<br>
Overall bit rate : 5 413 kb/s<br>
Encoded date : UTC 2024-06-08 07:51:47<br>
Writing application : mkvmerge v84.0 ('Sleeper') 64-bit<br>
Writing library : libebml v1.4.5 + libmatroska v1.7.1<br>
<br>
Video<br>
ID : 1<br>
Format : AVC<br>
Format/Info : Advanced Video Codec<br>
Format profile : Main@L4<br>
Format settings : CABAC / 3 Ref Frames<br>
Format settings, CABAC : Yes<br>
Format settings, Reference frames : 3 frames<br>
Codec ID : V_MPEG4/ISO/AVC<br>
Duration : 23 min 35 s<br>
Bit rate mode : Variable<br>
Bit rate : 5 000 kb/s<br>
Maximum bit rate : 7 500 kb/s<br>
Width : 1 920 pixels<br>
Height : 1 080 pixels<br>
Display aspect ratio : 16:9<br>
Frame rate mode : Constant<br>
Frame rate : 23.976 (24000/1001) FPS<br>
Color space : YUV<br>
Chroma subsampling : 4:2:0<br>
Bit depth : 8 bits<br>
Scan type : Progressive<br>
Bits/(Pixel*Frame) : 0.101<br>
Stream size : 804 MiB (88%)<br>
Writing library : x264 core 148 r2727 7d026e8<br>
Encoding settings : cabac=1 / ref=3 / deblock=1:0:0 / analyse=0x1:0x111 / me=umh / subme=10 / psy=1 / psy_rd=1.00:0.00 / mixed_ref=1 / me_range=24 / chroma_me=1 / trellis=2 / 8x8dct=0 / cqm=0 / deadzone=21,11 / fast_pskip=1 / chroma_qp_offset=-2 / threads=6 / lookahead_threads=1 / sliced_threads=0 / nr=0 / decimate=1 / interlaced=0 / bluray_compat=0 / stitchable=1 / constrained_intra=0 / bframes=2 / b_pyramid=0 / b_adapt=2 / b_bias=0 / direct=3 / weightb=1 / open_gop=0 / weightp=2 / keyint=240 / keyint_min=121 / scenecut=0 / intra_refresh=0 / rc_lookahead=48 / rc=2pass / mbtree=1 / bitrate=5000 / ratetol=1.0 / qcomp=0.50 / qpmin=6 / qpmax=51 / qpstep=4 / cplxblur=20.0 / qblur=0.5 / vbv_maxrate=7500 / vbv_bufsize=10000 / nal_hrd=vbr / filler=0 / ip_ratio=1.40 / aq=1:1.00<br>
Default : Yes<br>
Forced : No<br>
<br>
Audio<br>
ID : 2<br>
Format : E-AC-3<br>
Format/Info : Enhanced AC-3<br>
Commercial name : Dolby Digital Plus<br>
Codec ID : A_EAC3<br>
Duration : 23 min 35 s<br>
Bit rate mode : Constant<br>
Bit rate : 640 kb/s<br>
Channel(s) : 6 channels<br>
Channel layout : L R C LFE Ls Rs<br>
Sampling rate : 48.0 kHz<br>
Frame rate : 31.250 FPS (1536 SPF)<br>
Compression mode : Lossy<br>
Stream size : 108 MiB (12%)<br>
Language : English<br>
Service kind : Complete Main<br>
Default : Yes<br>
Forced : No<br>
<br>
Text #1<br>
ID : 3<br>
Format : UTF-8<br>
Codec ID : S_TEXT/UTF8<br>
Codec ID/Info : UTF-8 Plain Text<br>
Duration : 21 min 37 s<br>
Bit rate : 103 b/s<br>
Count of elements : 544<br>
Stream size : 16.4 KiB (0%)<br>
Title : SDH<br>
Language : English<br>
Default : No<br>
Forced : No<br>
<br>
Text #2<br>
ID : 4<br>
Format : UTF-8<br>
Codec ID : S_TEXT/UTF8<br>
Codec ID/Info : UTF-8 Plain Text<br>
Duration : 21 min 59 s<br>
Bit rate : 120 b/s<br>
Count of elements : 364<br>
Stream size : 19.3 KiB (0%)<br>
Language : Arabic<br>
Default : No<br>
Forced : No<br>
<br>
Text #3<br>
ID : 5<br>
Format : UTF-8<br>
Codec ID : S_TEXT/UTF8<br>
Codec ID/Info : UTF-8 Plain Text<br>
Duration : 21 min 54 s<br>
Bit rate : 71 b/s<br>
Count of elements : 363<br>
Stream size : 11.5 KiB (0%)<br>
Language : Danish<br>
Default : No<br>
Forced : No<br>
<br>
Text #4<br>
ID : 6<br>
Format : UTF-8<br>
Codec ID : S_TEXT/UTF8<br>
Codec ID/Info : UTF-8 Plain Text<br>
Duration : 21 min 54 s<br>
Bit rate : 74 b/s<br>
Count of elements : 360<br>
Stream size : 12.0 KiB (0%)<br>
Language : German<br>
Default : No<br>
Forced : No<br>
<br>
Text #5<br>
ID : 7<br>
Format : UTF-8<br>
Codec ID : S_TEXT/UTF8<br>
Codec ID/Info : UTF-8 Plain Text<br>
Duration : 21 min 54 s<br>
Bit rate : 139 b/s<br>
Count of elements : 362<br>
Stream size : 22.5 KiB (0%)<br>
Language : Greek<br>
Default : No<br>
Forced : No<br>
<br>
Text #6<br>
ID : 8<br>
Format : UTF-8<br>
Codec ID : S_TEXT/UTF8<br>
Codec ID/Info : UTF-8 Plain Text<br>
Duration : 21 min 54 s<br>
Bit rate : 76 b/s<br>
Count of elements : 367<br>
Stream size : 12.2 KiB (0%)<br>
Title : Latin American<br>
Language : Spanish<br>
Default : No<br>
Forced : No<br>
<br>
Text #7<br>
ID : 9<br>
Format : UTF-8<br>
Codec ID : S_TEXT/UTF8<br>
Codec ID/Info : UTF-8 Plain Text<br>
Duration : 21 min 54 s<br>
Bit rate : 73 b/s<br>
Count of elements : 350<br>
Stream size : 11.9 KiB (0%)<br>
Title : European<br>
Language : Spanish<br>
Default : No<br>
Forced : No<br>
<br>
Text #8<br>
ID : 10<br>
Format : UTF-8<br>
Codec ID : S_TEXT/UTF8<br>
Codec ID/Info : UTF-8 Plain Text<br>
Duration : 21 min 54 s<br>
Bit rate : 74 b/s<br>
Count of elements : 272<br>
Stream size : 11.9 KiB (0%)<br>
Language : Finnish<br>
Default : No<br>
Forced : No<br>
<br>
Text #9<br>
ID : 11<br>
Format : UTF-8<br>
Codec ID : S_TEXT/UTF8<br>
Codec ID/Info : UTF-8 Plain Text<br>
Duration : 21 min 54 s<br>
Bit rate : 80 b/s<br>
Count of elements : 361<br>
Stream size : 12.9 KiB (0%)<br>
Language : French<br>
Default : No<br>
Forced : No<br>
<br>
Text #10<br>
ID : 12<br>
Format : UTF-8<br>
Codec ID : S_TEXT/UTF8<br>
Codec ID/Info : UTF-8 Plain Text<br>
Duration : 21 min 59 s<br>
Bit rate : 200 b/s<br>
Count of elements : 379<br>
Stream size : 32.3 KiB (0%)<br>
Language : Hindi<br>
Default : No<br>
Forced : No<br>
<br>
Text #11<br>
ID : 13<br>
Format : UTF-8<br>
Codec ID : S_TEXT/UTF8<br>
Codec ID/Info : UTF-8 Plain Text<br>
Duration : 21 min 57 s<br>
Bit rate : 70 b/s<br>
Count of elements : 367<br>
Stream size : 11.4 KiB (0%)<br>
Language : Indonesian<br>
Default : No<br>
Forced : No<br>
<br>
Text #12<br>
ID : 14<br>
Format : UTF-8<br>
Codec ID : S_TEXT/UTF8<br>
Codec ID/Info : UTF-8 Plain Text<br>
Duration : 21 min 54 s<br>
Bit rate : 73 b/s<br>
Count of elements : 360<br>
Stream size : 11.9 KiB (0%)<br>
Language : Italian<br>
Default : No<br>
Forced : No<br>
<br>
Text #13<br>
ID : 15<br>
Format : UTF-8<br>
Codec ID : S_TEXT/UTF8<br>
Codec ID/Info : UTF-8 Plain Text<br>
Duration : 21 min 27 s<br>
Bit rate : 116 b/s<br>
Count of elements : 380<br>
Stream size : 18.3 KiB (0%)<br>
Language : Japanese<br>
Default : No<br>
Forced : No<br>
<br>
Text #14<br>
ID : 16<br>
Format : UTF-8<br>
Codec ID : S_TEXT/UTF8<br>
Codec ID/Info : UTF-8 Plain Text<br>
Duration : 21 min 57 s<br>
Bit rate : 91 b/s<br>
Count of elements : 416<br>
Stream size : 14.8 KiB (0%)<br>
Language : Korean<br>
Default : No<br>
Forced : No<br>
<br>
Text #15<br>
ID : 17<br>
Format : UTF-8<br>
Codec ID : S_TEXT/UTF8<br>
Codec ID/Info : UTF-8 Plain Text<br>
Duration : 21 min 54 s<br>
Bit rate : 71 b/s<br>
Count of elements : 250<br>
Stream size : 11.5 KiB (0%)<br>
Language : Norwegian Bokmal<br>
Default : No<br>
Forced : No<br>
<br>
Text #16<br>
ID : 18<br>
Format : UTF-8<br>
Codec ID : S_TEXT/UTF8<br>
Codec ID/Info : UTF-8 Plain Text<br>
Duration : 21 min 54 s<br>
Bit rate : 69 b/s<br>
Count of elements : 284<br>
Stream size : 11.1 KiB (0%)<br>
Language : Dutch<br>
Default : No<br>
Forced : No<br>
<br>
Text #17<br>
ID : 19<br>
Format : UTF-8<br>
Codec ID : S_TEXT/UTF8<br>
Codec ID/Info : UTF-8 Plain Text<br>
Duration : 21 min 54 s<br>
Bit rate : 76 b/s<br>
Count of elements : 329<br>
Stream size : 12.3 KiB (0%)<br>
Language : Polish<br>
Default : No<br>
Forced : No<br>
<br>
Text #18<br>
ID : 20<br>
Format : UTF-8<br>
Codec ID : S_TEXT/UTF8<br>
Codec ID/Info : UTF-8 Plain Text<br>
Duration : 21 min 54 s<br>
Bit rate : 72 b/s<br>
Count of elements : 329<br>
Stream size : 11.7 KiB (0%)<br>
Title : Brazilian<br>
Language : Portuguese<br>
Default : No<br>
Forced : No<br>
<br>
Text #19<br>
ID : 21<br>
Format : UTF-8<br>
Codec ID : S_TEXT/UTF8<br>
Codec ID/Info : UTF-8 Plain Text<br>
Duration : 21 min 54 s<br>
Bit rate : 78 b/s<br>
Count of elements : 367<br>
Stream size : 12.5 KiB (0%)<br>
Title : European<br>
Language : Portuguese<br>
Default : No<br>
Forced : No<br>
<br>
Text #20<br>
ID : 22<br>
Format : UTF-8<br>
Codec ID : S_TEXT/UTF8<br>
Codec ID/Info : UTF-8 Plain Text<br>
Duration : 21 min 54 s<br>
Bit rate : 78 b/s<br>
Count of elements : 310<br>
Stream size : 12.5 KiB (0%)<br>
Language : Romanian<br>
Default : No<br>
Forced : No<br>
<br>
Text #21<br>
ID : 23<br>
Format : UTF-8<br>
Codec ID : S_TEXT/UTF8<br>
Codec ID/Info : UTF-8 Plain Text<br>
Duration : 21 min 54 s<br>
Bit rate : 115 b/s<br>
Count of elements : 367<br>
Stream size : 18.6 KiB (0%)<br>
Language : Russian<br>
Default : No<br>
Forced : No<br>
<br>
Text #22<br>
ID : 24<br>
Format : UTF-8<br>
Codec ID : S_TEXT/UTF8<br>
Codec ID/Info : UTF-8 Plain Text<br>
Duration : 21 min 54 s<br>
Bit rate : 73 b/s<br>
Count of elements : 296<br>
Stream size : 11.7 KiB (0%)<br>
Language : Swedish<br>
Default : No<br>
Forced : No<br>
<br>
Text #23<br>
ID : 25<br>
Format : UTF-8<br>
Codec ID : S_TEXT/UTF8<br>
Codec ID/Info : UTF-8 Plain Text<br>
Duration : 21 min 59 s<br>
Bit rate : 196 b/s<br>
Count of elements : 381<br>
Stream size : 31.6 KiB (0%)<br>
Language : Thai<br>
Default : No<br>
Forced : No<br>
<br>
Text #24<br>
ID : 26<br>
Format : UTF-8<br>
Codec ID : S_TEXT/UTF8<br>
Codec ID/Info : UTF-8 Plain Text<br>
Duration : 21 min 54 s<br>
Bit rate : 73 b/s<br>
Count of elements : 367<br>
Stream size : 11.8 KiB (0%)<br>
Language : Turkish<br>
Default : No<br>
Forced : No<br>
<br>
Text #25<br>
ID : 27<br>
Format : UTF-8<br>
Codec ID : S_TEXT/UTF8<br>
Codec ID/Info : UTF-8 Plain Text<br>
Duration : 21 min 59 s<br>
Bit rate : 107 b/s<br>
Count of elements : 366<br>
Stream size : 17.3 KiB (0%)<br>
Language : Vietnamese<br>
Default : No<br>
Forced : No<br>
<br>
Text #26<br>
ID : 28<br>
Format : UTF-8<br>
Codec ID : S_TEXT/UTF8<br>
Codec ID/Info : UTF-8 Plain Text<br>
Duration : 21 min 58 s<br>
Bit rate : 76 b/s<br>
Count of elements : 365<br>
Stream size : 12.3 KiB (0%)<br>
Title : Simplified<br>
Language : Chinese<br>
Default : No<br>
Forced : No<br>
<br>
Text #27<br>
ID : 29<br>
Format : UTF-8<br>
Codec ID : S_TEXT/UTF8<br>
Codec ID/Info : UTF-8 Plain Text<br>
Duration : 21 min 59 s<br>
Bit rate : 77 b/s<br>
Count of elements : 376<br>
Stream size : 12.5 KiB (0%)<br>
Title : Traditional<br>
Language : Chinese<br>
Default : No<br>
Forced : No<br>
<br>
Menu<br>
00:00:00.000 : en<img src="styles/default/xenforo/smilies/grimace-48.png" class="mceSmilie" alt=":p" title="Stick Out Tongue    :p">art 01<br>
00:01:33.500 : en:Intro<br>
00:02:03.250 : en<img src="styles/default/xenforo/smilies/grimace-48.png" class="mceSmilie" alt=":p" title="Stick Out Tongue    :p">art 02<br>
00:21:36.450 : en:Credits</div>
</div><br>
Screenshots:<br>
<img src="https://ptpimg.me/77lqop.jpg" class="bbCodeImage LbImage" alt="[​IMG]" data-url="https://ptpimg.me/77lqop.jpg" style=""> <br>
<br>
<div class="bbCodeBlock bbCodeVfcHH HiddenContent">
<div class="attribution type">Hidden Content:</div>
<blockquote>You must either reply or click 'Like' to see the hidden information contained here.</blockquote>
</div>
<div class="messageTextEndMarker">&nbsp;</div>
</blockquote>
</article>]]></description>
                <author><![CDATA[LazyRips]]></author>
                </item>

                </channel></rss>